<svg width="130" height="135" viewBox="0 0 130 135" fill="none" xmlns="http://www.w3.org/2000/svg">
<g filter="url(#filter0_d_130_6)">
<circle cx="65" cy="50.0001" r="50" fill="#FFC700"/>
</g>
<g clip-path="url(#clip0_130_6)">
<path d="M83.1798 53.9451C82.8159 53.0452 81.7913 52.6103 80.8913 52.9743C79.9912 53.3382 79.5565 54.3627 79.9203 55.2628L81.9906 60.3838L75.842 57.6734C75.3969 57.4772 74.8904 57.4741 74.443 57.665C72.3417 58.5616 70.0907 59.0162 67.7524 59.0162C58.3418 59.0162 52.0201 51.6479 52.0201 44.7659C52.0201 36.9084 59.0776 30.5157 67.7524 30.5157C76.4273 30.5157 83.4848 36.9084 83.4848 44.7659C83.4848 45.379 83.4277 46.113 83.3283 46.7798C83.185 47.74 83.8473 48.6344 84.8075 48.7777C85.7678 48.9213 86.6622 48.2587 86.8054 47.2985C86.9312 46.4556 87.0004 45.5562 87.0004 44.7659C87.0004 39.9909 84.9784 35.5104 81.3066 32.1499C77.6783 28.829 72.8647 27.0001 67.7524 27.0001C62.6402 27.0001 57.8266 28.829 54.1982 32.1498C50.9171 35.1528 48.9547 39.0506 48.574 43.2534C44.447 45.9865 42.0005 50.366 42.0005 55.0833C42.0005 58.0301 42.9289 60.8261 44.6961 63.2323L42.1287 69.5834C41.8605 70.2466 42.0211 71.0063 42.5348 71.5042C42.8696 71.8289 43.3107 72.0001 43.7587 72.0001C43.998 72 44.2394 71.9513 44.4674 71.8507L51.8703 68.5873C53.7325 69.2805 55.701 69.6315 57.7328 69.6315C57.7768 69.6315 57.8199 69.6281 57.8631 69.6249C60.8019 69.6026 63.6589 68.8297 66.1334 67.3831C68.3498 66.0872 70.173 64.3071 71.4512 62.2048C72.6992 61.9807 73.9189 61.6421 75.1028 61.1896L84.5335 65.3468C84.7616 65.4473 85.0029 65.4962 85.2422 65.4962C85.6902 65.4961 86.1314 65.3249 86.4662 65.0004C86.9799 64.5024 87.1405 63.7428 86.8723 63.0795L83.1798 53.9451ZM57.733 66.1114C57.709 66.1114 57.6856 66.114 57.6618 66.115C55.8669 66.1058 54.1394 65.753 52.526 65.0647C52.0787 64.8737 51.5722 64.8768 51.1271 65.073L47.0106 66.8876L48.3385 63.6027C48.584 62.9955 48.4714 62.302 48.0465 61.8036C46.3911 59.8615 45.5162 57.5378 45.5162 55.0833C45.5162 52.2743 46.6979 49.6127 48.7654 47.5945C49.4091 51.1036 51.2254 54.4603 53.9652 57.0972C57.3745 60.3784 61.8842 62.2793 66.7537 62.5081C64.4675 64.7586 61.1959 66.1114 57.733 66.1114Z" fill="white"/>
<path d="M67.6641 46.5997C68.6349 46.5997 69.4219 45.8127 69.4219 44.8419C69.4219 43.8711 68.6349 43.0841 67.6641 43.0841C66.6932 43.0841 65.9062 43.8711 65.9062 44.8419C65.9062 45.8127 66.6932 46.5997 67.6641 46.5997Z" fill="white"/>
<path d="M74.6953 46.5997C75.6661 46.5997 76.4531 45.8127 76.4531 44.8419C76.4531 43.8711 75.6661 43.0841 74.6953 43.0841C73.7245 43.0841 72.9375 43.8711 72.9375 44.8419C72.9375 45.8127 73.7245 46.5997 74.6953 46.5997Z" fill="white"/>
<path d="M60.6333 46.5997C61.6041 46.5997 62.3911 45.8127 62.3911 44.8419C62.3911 43.8711 61.6041 43.0841 60.6333 43.0841C59.6625 43.0841 58.8755 43.8711 58.8755 44.8419C58.8755 45.8127 59.6625 46.5997 60.6333 46.5997Z" fill="white"/>
</g>
<defs>
<filter id="filter0_d_130_6" x="0" y="0.00012207" width="130" height="135" filterUnits="userSpaceOnUse" color-interpolation-filters="sRGB">
<feFlood flood-opacity="0" result="BackgroundImageFix"/>
<feColorMatrix in="SourceAlpha" type="matrix" values="0 0 0 0 0 0 0 0 0 0 0 0 0 0 0 0 0 0 127 0" result="hardAlpha"/>
<feMorphology radius="20" operator="erode" in="SourceAlpha" result="effect1_dropShadow_130_6"/>
<feOffset dy="20"/>
<feGaussianBlur stdDeviation="17.5"/>
<feColorMatrix type="matrix" values="0 0 0 0 0.979167 0 0 0 0 0.764134 0 0 0 0 0 0 0 0 0.4 0"/>
<feBlend mode="normal" in2="BackgroundImageFix" result="effect1_dropShadow_130_6"/>
<feBlend mode="normal" in="SourceGraphic" in2="effect1_dropShadow_130_6" result="shape"/>
</filter>
<clipPath id="clip0_130_6">
<rect width="45" height="45" fill="white" transform="translate(42 27.0001)"/>
</clipPath>
</defs>
</svg>
