<svg width="285" height="33" viewBox="0 0 285 33" fill="none" xmlns="http://www.w3.org/2000/svg">
<rect x="0.5" y="0.5" width="284" height="32" rx="16" stroke="#D0E5F2"/>
<rect x="5" y="5" width="48" height="23" rx="11.5" fill="#FE5600"/>
<path d="M22.7872 20H21.4192L17.3032 13.772V20H15.9352V11.648H17.3032L21.4192 17.864V11.648H22.7872V20ZM25.9516 12.764V15.212H28.8316V16.328H25.9516V18.884H29.1916V20H24.5836V11.648H29.1916V12.764H25.9516ZM41.7366 11.66L39.2646 20H37.7166L35.9646 13.688L34.1046 20L32.5686 20.012L30.2046 11.66H31.6566L33.3846 18.452L35.2566 11.66H36.7926L38.5326 18.416L40.2726 11.66H41.7366Z" fill="white"/>
<path d="M63.1733 16.073C63.584 16.1463 63.9323 16.3627 64.2183 16.722C64.5043 17.0813 64.6473 17.4883 64.6473 17.943C64.6473 18.3317 64.5447 18.6837 64.3393 18.999C64.1413 19.307 63.8517 19.5527 63.4703 19.736C63.089 19.912 62.6453 20 62.1393 20H59.0813V12.355H61.9963C62.517 12.355 62.9643 12.443 63.3383 12.619C63.7123 12.795 63.9947 13.0333 64.1853 13.334C64.376 13.6273 64.4713 13.9573 64.4713 14.324C64.4713 14.764 64.354 15.1307 64.1193 15.424C63.8847 15.7173 63.5693 15.9337 63.1733 16.073ZM60.3353 15.567H61.8863C62.297 15.567 62.616 15.4753 62.8433 15.292C63.078 15.1013 63.1953 14.83 63.1953 14.478C63.1953 14.1333 63.078 13.8657 62.8433 13.675C62.616 13.477 62.297 13.378 61.8863 13.378H60.3353V15.567ZM62.0293 18.977C62.4547 18.977 62.7883 18.8743 63.0303 18.669C63.2723 18.4637 63.3933 18.1777 63.3933 17.811C63.3933 17.437 63.265 17.14 63.0083 16.92C62.7517 16.7 62.4107 16.59 61.9853 16.59H60.3353V18.977H62.0293ZM71.5651 16.821C71.5651 17.0483 71.5504 17.2537 71.5211 17.437H66.8901C66.9267 17.921 67.1064 18.3097 67.4291 18.603C67.7517 18.8963 68.1477 19.043 68.6171 19.043C69.2917 19.043 69.7684 18.7607 70.0471 18.196H71.4001C71.2167 18.7533 70.8831 19.2117 70.3991 19.571C69.9224 19.923 69.3284 20.099 68.6171 20.099C68.0377 20.099 67.5171 19.9707 67.0551 19.714C66.6004 19.45 66.2411 19.0833 65.9771 18.614C65.7204 18.1373 65.5921 17.5873 65.5921 16.964C65.5921 16.3407 65.7167 15.7943 65.9661 15.325C66.2227 14.8483 66.5784 14.4817 67.0331 14.225C67.4951 13.9683 68.0231 13.84 68.6171 13.84C69.1891 13.84 69.6987 13.9647 70.1461 14.214C70.5934 14.4633 70.9417 14.8153 71.1911 15.27C71.4404 15.7173 71.5651 16.2343 71.5651 16.821ZM70.2561 16.425C70.2487 15.963 70.0837 15.5927 69.7611 15.314C69.4384 15.0353 69.0387 14.896 68.5621 14.896C68.1294 14.896 67.7591 15.0353 67.4511 15.314C67.1431 15.5853 66.9597 15.9557 66.9011 16.425H70.2561ZM72.3811 16.964C72.3811 16.3407 72.5058 15.7943 72.7551 15.325C73.0118 14.8483 73.3638 14.4817 73.8111 14.225C74.2585 13.9683 74.7718 13.84 75.3511 13.84C76.0845 13.84 76.6895 14.016 77.1661 14.368C77.6501 14.7127 77.9765 15.2077 78.1451 15.853H76.7921C76.6821 15.5523 76.5061 15.3177 76.2641 15.149C76.0221 14.9803 75.7178 14.896 75.3511 14.896C74.8378 14.896 74.4271 15.0793 74.1191 15.446C73.8185 15.8053 73.6681 16.3113 73.6681 16.964C73.6681 17.6167 73.8185 18.1263 74.1191 18.493C74.4271 18.8597 74.8378 19.043 75.3511 19.043C76.0771 19.043 76.5575 18.724 76.7921 18.086H78.1451C77.9691 18.702 77.6391 19.1933 77.1551 19.56C76.6711 19.9193 76.0698 20.099 75.3511 20.099C74.7718 20.099 74.2585 19.9707 73.8111 19.714C73.3638 19.45 73.0118 19.0833 72.7551 18.614C72.5058 18.1373 72.3811 17.5873 72.3811 16.964ZM82.0238 20.099C81.4518 20.099 80.9348 19.9707 80.4728 19.714C80.0108 19.45 79.6478 19.0833 79.3838 18.614C79.1198 18.1373 78.9878 17.5873 78.9878 16.964C78.9878 16.348 79.1235 15.8017 79.3948 15.325C79.6662 14.8483 80.0365 14.4817 80.5058 14.225C80.9752 13.9683 81.4995 13.84 82.0788 13.84C82.6582 13.84 83.1825 13.9683 83.6518 14.225C84.1212 14.4817 84.4915 14.8483 84.7628 15.325C85.0342 15.8017 85.1698 16.348 85.1698 16.964C85.1698 17.58 85.0305 18.1263 84.7518 18.603C84.4732 19.0797 84.0918 19.45 83.6078 19.714C83.1312 19.9707 82.6032 20.099 82.0238 20.099ZM82.0238 19.01C82.3465 19.01 82.6472 18.933 82.9258 18.779C83.2118 18.625 83.4428 18.394 83.6188 18.086C83.7948 17.778 83.8828 17.404 83.8828 16.964C83.8828 16.524 83.7985 16.1537 83.6298 15.853C83.4612 15.545 83.2375 15.314 82.9588 15.16C82.6802 15.006 82.3795 14.929 82.0568 14.929C81.7342 14.929 81.4335 15.006 81.1548 15.16C80.8835 15.314 80.6672 15.545 80.5058 15.853C80.3445 16.1537 80.2638 16.524 80.2638 16.964C80.2638 17.6167 80.4288 18.1227 80.7588 18.482C81.0962 18.834 81.5178 19.01 82.0238 19.01ZM93.7465 13.84C94.2231 13.84 94.6485 13.939 95.0225 14.137C95.4038 14.335 95.7008 14.6283 95.9135 15.017C96.1335 15.4057 96.2435 15.875 96.2435 16.425V20H95.0005V16.612C95.0005 16.0693 94.8648 15.655 94.5935 15.369C94.3221 15.0757 93.9518 14.929 93.4825 14.929C93.0131 14.929 92.6391 15.0757 92.3605 15.369C92.0891 15.655 91.9535 16.0693 91.9535 16.612V20H90.7105V16.612C90.7105 16.0693 90.5748 15.655 90.3035 15.369C90.0321 15.0757 89.6618 14.929 89.1925 14.929C88.7231 14.929 88.3491 15.0757 88.0705 15.369C87.7991 15.655 87.6635 16.0693 87.6635 16.612V20H86.4095V13.939H87.6635V14.632C87.8688 14.3827 88.1291 14.1883 88.4445 14.049C88.7598 13.9097 89.0971 13.84 89.4565 13.84C89.9405 13.84 90.3731 13.9427 90.7545 14.148C91.1358 14.3533 91.4291 14.6503 91.6345 15.039C91.8178 14.6723 92.1038 14.3827 92.4925 14.17C92.8811 13.95 93.2991 13.84 93.7465 13.84ZM98.4772 13.136C98.2498 13.136 98.0592 13.059 97.9052 12.905C97.7512 12.751 97.6742 12.5603 97.6742 12.333C97.6742 12.1057 97.7512 11.915 97.9052 11.761C98.0592 11.607 98.2498 11.53 98.4772 11.53C98.6972 11.53 98.8842 11.607 99.0382 11.761C99.1922 11.915 99.2692 12.1057 99.2692 12.333C99.2692 12.5603 99.1922 12.751 99.0382 12.905C98.8842 13.059 98.6972 13.136 98.4772 13.136ZM99.0932 13.939V20H97.8392V13.939H99.0932ZM103.798 13.84C104.274 13.84 104.7 13.939 105.074 14.137C105.455 14.335 105.752 14.6283 105.965 15.017C106.177 15.4057 106.284 15.875 106.284 16.425V20H105.041V16.612C105.041 16.0693 104.905 15.655 104.634 15.369C104.362 15.0757 103.992 14.929 103.523 14.929C103.053 14.929 102.679 15.0757 102.401 15.369C102.129 15.655 101.994 16.0693 101.994 16.612V20H100.74V13.939H101.994V14.632C102.199 14.3827 102.459 14.1883 102.775 14.049C103.097 13.9097 103.438 13.84 103.798 13.84ZM110.325 13.84C110.794 13.84 111.209 13.9353 111.568 14.126C111.935 14.3093 112.221 14.5403 112.426 14.819V13.939H113.691V20.099C113.691 20.6563 113.574 21.1513 113.339 21.584C113.104 22.024 112.763 22.3687 112.316 22.618C111.876 22.8673 111.348 22.992 110.732 22.992C109.911 22.992 109.229 22.7977 108.686 22.409C108.143 22.0277 107.835 21.507 107.762 20.847H109.005C109.1 21.1623 109.302 21.4153 109.61 21.606C109.925 21.804 110.299 21.903 110.732 21.903C111.238 21.903 111.645 21.749 111.953 21.441C112.268 21.133 112.426 20.6857 112.426 20.099V19.087C112.213 19.373 111.924 19.615 111.557 19.813C111.198 20.0037 110.787 20.099 110.325 20.099C109.797 20.099 109.313 19.967 108.873 19.703C108.44 19.4317 108.096 19.0577 107.839 18.581C107.59 18.097 107.465 17.5507 107.465 16.942C107.465 16.3333 107.59 15.7943 107.839 15.325C108.096 14.8557 108.44 14.4927 108.873 14.236C109.313 13.972 109.797 13.84 110.325 13.84ZM112.426 16.964C112.426 16.546 112.338 16.183 112.162 15.875C111.993 15.567 111.77 15.3323 111.491 15.171C111.212 15.0097 110.912 14.929 110.589 14.929C110.266 14.929 109.966 15.0097 109.687 15.171C109.408 15.325 109.181 15.556 109.005 15.864C108.836 16.1647 108.752 16.524 108.752 16.942C108.752 17.36 108.836 17.7267 109.005 18.042C109.181 18.3573 109.408 18.5993 109.687 18.768C109.973 18.9293 110.274 19.01 110.589 19.01C110.912 19.01 111.212 18.9293 111.491 18.768C111.77 18.6067 111.993 18.372 112.162 18.064C112.338 17.7487 112.426 17.382 112.426 16.964ZM117.778 16.942C117.778 16.3333 117.902 15.7943 118.152 15.325C118.408 14.8557 118.753 14.4927 119.186 14.236C119.626 13.972 120.11 13.84 120.638 13.84C121.114 13.84 121.529 13.9353 121.881 14.126C122.24 14.3093 122.526 14.5403 122.739 14.819V13.939H124.004V20H122.739V19.098C122.526 19.384 122.236 19.6223 121.87 19.813C121.503 20.0037 121.085 20.099 120.616 20.099C120.095 20.099 119.618 19.967 119.186 19.703C118.753 19.4317 118.408 19.0577 118.152 18.581C117.902 18.097 117.778 17.5507 117.778 16.942ZM122.739 16.964C122.739 16.546 122.651 16.183 122.475 15.875C122.306 15.567 122.082 15.3323 121.804 15.171C121.525 15.0097 121.224 14.929 120.902 14.929C120.579 14.929 120.278 15.0097 120 15.171C119.721 15.325 119.494 15.556 119.318 15.864C119.149 16.1647 119.065 16.524 119.065 16.942C119.065 17.36 119.149 17.7267 119.318 18.042C119.494 18.3573 119.721 18.5993 120 18.768C120.286 18.9293 120.586 19.01 120.902 19.01C121.224 19.01 121.525 18.9293 121.804 18.768C122.082 18.6067 122.306 18.372 122.475 18.064C122.651 17.7487 122.739 17.382 122.739 16.964ZM129.762 14.841C129.975 14.5477 130.264 14.3093 130.631 14.126C131.005 13.9353 131.419 13.84 131.874 13.84C132.409 13.84 132.893 13.9683 133.326 14.225C133.759 14.4817 134.1 14.8483 134.349 15.325C134.598 15.7943 134.723 16.3333 134.723 16.942C134.723 17.5507 134.598 18.097 134.349 18.581C134.1 19.0577 133.755 19.4317 133.315 19.703C132.882 19.967 132.402 20.099 131.874 20.099C131.405 20.099 130.987 20.0073 130.62 19.824C130.261 19.6407 129.975 19.406 129.762 19.12V20H128.508V11.86H129.762V14.841ZM133.447 16.942C133.447 16.524 133.359 16.1647 133.183 15.864C133.014 15.556 132.787 15.325 132.501 15.171C132.222 15.0097 131.922 14.929 131.599 14.929C131.284 14.929 130.983 15.0097 130.697 15.171C130.418 15.3323 130.191 15.567 130.015 15.875C129.846 16.183 129.762 16.546 129.762 16.964C129.762 17.382 129.846 17.7487 130.015 18.064C130.191 18.372 130.418 18.6067 130.697 18.768C130.983 18.9293 131.284 19.01 131.599 19.01C131.922 19.01 132.222 18.9293 132.501 18.768C132.787 18.5993 133.014 18.3573 133.183 18.042C133.359 17.7267 133.447 17.36 133.447 16.942ZM141.452 13.939V20H140.198V19.285C140 19.5343 139.74 19.7323 139.417 19.879C139.102 20.0183 138.765 20.088 138.405 20.088C137.929 20.088 137.5 19.989 137.118 19.791C136.744 19.593 136.447 19.2997 136.227 18.911C136.015 18.5223 135.908 18.053 135.908 17.503V13.939H137.151V17.316C137.151 17.8587 137.287 18.2767 137.558 18.57C137.83 18.856 138.2 18.999 138.669 18.999C139.139 18.999 139.509 18.856 139.78 18.57C140.059 18.2767 140.198 17.8587 140.198 17.316V13.939H141.452ZM145.307 20.099C144.83 20.099 144.401 20.0147 144.02 19.846C143.646 19.67 143.349 19.4353 143.129 19.142C142.909 18.8413 142.791 18.5077 142.777 18.141H144.075C144.097 18.3977 144.218 18.614 144.438 18.79C144.665 18.9587 144.947 19.043 145.285 19.043C145.637 19.043 145.908 18.977 146.099 18.845C146.297 18.7057 146.396 18.5297 146.396 18.317C146.396 18.0897 146.286 17.921 146.066 17.811C145.853 17.701 145.512 17.58 145.043 17.448C144.588 17.3233 144.218 17.2023 143.932 17.085C143.646 16.9677 143.396 16.788 143.184 16.546C142.978 16.304 142.876 15.985 142.876 15.589C142.876 15.2663 142.971 14.973 143.162 14.709C143.352 14.4377 143.624 14.225 143.976 14.071C144.335 13.917 144.746 13.84 145.208 13.84C145.897 13.84 146.451 14.016 146.869 14.368C147.294 14.7127 147.521 15.1857 147.551 15.787H146.297C146.275 15.5157 146.165 15.2993 145.967 15.138C145.769 14.9767 145.501 14.896 145.164 14.896C144.834 14.896 144.581 14.9583 144.405 15.083C144.229 15.2077 144.141 15.3727 144.141 15.578C144.141 15.7393 144.199 15.875 144.317 15.985C144.434 16.095 144.577 16.183 144.746 16.249C144.914 16.3077 145.164 16.3847 145.494 16.48C145.934 16.5973 146.293 16.7183 146.572 16.843C146.858 16.9603 147.103 17.1363 147.309 17.371C147.514 17.6057 147.62 17.9173 147.628 18.306C147.628 18.6507 147.532 18.9587 147.342 19.23C147.151 19.5013 146.88 19.714 146.528 19.868C146.183 20.022 145.776 20.099 145.307 20.099ZM149.621 13.136C149.393 13.136 149.203 13.059 149.049 12.905C148.895 12.751 148.818 12.5603 148.818 12.333C148.818 12.1057 148.895 11.915 149.049 11.761C149.203 11.607 149.393 11.53 149.621 11.53C149.841 11.53 150.028 11.607 150.182 11.761C150.336 11.915 150.413 12.1057 150.413 12.333C150.413 12.5603 150.336 12.751 150.182 12.905C150.028 13.059 149.841 13.136 149.621 13.136ZM150.237 13.939V20H148.983V13.939H150.237ZM154.941 13.84C155.418 13.84 155.843 13.939 156.217 14.137C156.598 14.335 156.895 14.6283 157.108 15.017C157.321 15.4057 157.427 15.875 157.427 16.425V20H156.184V16.612C156.184 16.0693 156.048 15.655 155.777 15.369C155.506 15.0757 155.135 14.929 154.666 14.929C154.197 14.929 153.823 15.0757 153.544 15.369C153.273 15.655 153.137 16.0693 153.137 16.612V20H151.883V13.939H153.137V14.632C153.342 14.3827 153.603 14.1883 153.918 14.049C154.241 13.9097 154.582 13.84 154.941 13.84ZM164.582 16.821C164.582 17.0483 164.567 17.2537 164.538 17.437H159.907C159.943 17.921 160.123 18.3097 160.446 18.603C160.768 18.8963 161.164 19.043 161.634 19.043C162.308 19.043 162.785 18.7607 163.064 18.196H164.417C164.233 18.7533 163.9 19.2117 163.416 19.571C162.939 19.923 162.345 20.099 161.634 20.099C161.054 20.099 160.534 19.9707 160.072 19.714C159.617 19.45 159.258 19.0833 158.994 18.614C158.737 18.1373 158.609 17.5873 158.609 16.964C158.609 16.3407 158.733 15.7943 158.983 15.325C159.239 14.8483 159.595 14.4817 160.05 14.225C160.512 13.9683 161.04 13.84 161.634 13.84C162.206 13.84 162.715 13.9647 163.163 14.214C163.61 14.4633 163.958 14.8153 164.208 15.27C164.457 15.7173 164.582 16.2343 164.582 16.821ZM163.273 16.425C163.265 15.963 163.1 15.5927 162.778 15.314C162.455 15.0353 162.055 14.896 161.579 14.896C161.146 14.896 160.776 15.0353 160.468 15.314C160.16 15.5853 159.976 15.9557 159.918 16.425H163.273ZM168.016 20.099C167.539 20.099 167.11 20.0147 166.729 19.846C166.355 19.67 166.058 19.4353 165.838 19.142C165.618 18.8413 165.5 18.5077 165.486 18.141H166.784C166.806 18.3977 166.927 18.614 167.147 18.79C167.374 18.9587 167.656 19.043 167.994 19.043C168.346 19.043 168.617 18.977 168.808 18.845C169.006 18.7057 169.105 18.5297 169.105 18.317C169.105 18.0897 168.995 17.921 168.775 17.811C168.562 17.701 168.221 17.58 167.752 17.448C167.297 17.3233 166.927 17.2023 166.641 17.085C166.355 16.9677 166.105 16.788 165.893 16.546C165.687 16.304 165.585 15.985 165.585 15.589C165.585 15.2663 165.68 14.973 165.871 14.709C166.061 14.4377 166.333 14.225 166.685 14.071C167.044 13.917 167.455 13.84 167.917 13.84C168.606 13.84 169.16 14.016 169.578 14.368C170.003 14.7127 170.23 15.1857 170.26 15.787H169.006C168.984 15.5157 168.874 15.2993 168.676 15.138C168.478 14.9767 168.21 14.896 167.873 14.896C167.543 14.896 167.29 14.9583 167.114 15.083C166.938 15.2077 166.85 15.3727 166.85 15.578C166.85 15.7393 166.908 15.875 167.026 15.985C167.143 16.095 167.286 16.183 167.455 16.249C167.623 16.3077 167.873 16.3847 168.203 16.48C168.643 16.5973 169.002 16.7183 169.281 16.843C169.567 16.9603 169.812 17.1363 170.018 17.371C170.223 17.6057 170.329 17.9173 170.337 18.306C170.337 18.6507 170.241 18.9587 170.051 19.23C169.86 19.5013 169.589 19.714 169.237 19.868C168.892 20.022 168.485 20.099 168.016 20.099ZM173.892 20.099C173.415 20.099 172.986 20.0147 172.605 19.846C172.231 19.67 171.934 19.4353 171.714 19.142C171.494 18.8413 171.376 18.5077 171.362 18.141H172.66C172.682 18.3977 172.803 18.614 173.023 18.79C173.25 18.9587 173.532 19.043 173.87 19.043C174.222 19.043 174.493 18.977 174.684 18.845C174.882 18.7057 174.981 18.5297 174.981 18.317C174.981 18.0897 174.871 17.921 174.651 17.811C174.438 17.701 174.097 17.58 173.628 17.448C173.173 17.3233 172.803 17.2023 172.517 17.085C172.231 16.9677 171.981 16.788 171.769 16.546C171.563 16.304 171.461 15.985 171.461 15.589C171.461 15.2663 171.556 14.973 171.747 14.709C171.937 14.4377 172.209 14.225 172.561 14.071C172.92 13.917 173.331 13.84 173.793 13.84C174.482 13.84 175.036 14.016 175.454 14.368C175.879 14.7127 176.106 15.1857 176.136 15.787H174.882C174.86 15.5157 174.75 15.2993 174.552 15.138C174.354 14.9767 174.086 14.896 173.749 14.896C173.419 14.896 173.166 14.9583 172.99 15.083C172.814 15.2077 172.726 15.3727 172.726 15.578C172.726 15.7393 172.784 15.875 172.902 15.985C173.019 16.095 173.162 16.183 173.331 16.249C173.499 16.3077 173.749 16.3847 174.079 16.48C174.519 16.5973 174.878 16.7183 175.157 16.843C175.443 16.9603 175.688 17.1363 175.894 17.371C176.099 17.6057 176.205 17.9173 176.213 18.306C176.213 18.6507 176.117 18.9587 175.927 19.23C175.736 19.5013 175.465 19.714 175.113 19.868C174.768 20.022 174.361 20.099 173.892 20.099ZM181.679 14.83C181.892 14.5513 182.181 14.3167 182.548 14.126C182.915 13.9353 183.329 13.84 183.791 13.84C184.319 13.84 184.799 13.972 185.232 14.236C185.672 14.4927 186.017 14.8557 186.266 15.325C186.515 15.7943 186.64 16.3333 186.64 16.942C186.64 17.5507 186.515 18.097 186.266 18.581C186.017 19.0577 185.672 19.4317 185.232 19.703C184.799 19.967 184.319 20.099 183.791 20.099C183.329 20.099 182.918 20.0073 182.559 19.824C182.2 19.6333 181.906 19.3987 181.679 19.12V22.882H180.425V13.939H181.679V14.83ZM185.364 16.942C185.364 16.524 185.276 16.1647 185.1 15.864C184.931 15.556 184.704 15.325 184.418 15.171C184.139 15.0097 183.839 14.929 183.516 14.929C183.201 14.929 182.9 15.0097 182.614 15.171C182.335 15.3323 182.108 15.567 181.932 15.875C181.763 16.183 181.679 16.546 181.679 16.964C181.679 17.382 181.763 17.7487 181.932 18.064C182.108 18.372 182.335 18.6067 182.614 18.768C182.9 18.9293 183.201 19.01 183.516 19.01C183.839 19.01 184.139 18.9293 184.418 18.768C184.704 18.5993 184.931 18.3573 185.1 18.042C185.276 17.7267 185.364 17.36 185.364 16.942ZM187.462 16.942C187.462 16.3333 187.587 15.7943 187.836 15.325C188.093 14.8557 188.438 14.4927 188.87 14.236C189.31 13.972 189.794 13.84 190.322 13.84C190.799 13.84 191.213 13.9353 191.565 14.126C191.925 14.3093 192.211 14.5403 192.423 14.819V13.939H193.688V20H192.423V19.098C192.211 19.384 191.921 19.6223 191.554 19.813C191.188 20.0037 190.77 20.099 190.3 20.099C189.78 20.099 189.303 19.967 188.87 19.703C188.438 19.4317 188.093 19.0577 187.836 18.581C187.587 18.097 187.462 17.5507 187.462 16.942ZM192.423 16.964C192.423 16.546 192.335 16.183 192.159 15.875C191.991 15.567 191.767 15.3323 191.488 15.171C191.21 15.0097 190.909 14.929 190.586 14.929C190.264 14.929 189.963 15.0097 189.684 15.171C189.406 15.325 189.178 15.556 189.002 15.864C188.834 16.1647 188.749 16.524 188.749 16.942C188.749 17.36 188.834 17.7267 189.002 18.042C189.178 18.3573 189.406 18.5993 189.684 18.768C189.97 18.9293 190.271 19.01 190.586 19.01C190.909 19.01 191.21 18.9293 191.488 18.768C191.767 18.6067 191.991 18.372 192.159 18.064C192.335 17.7487 192.423 17.382 192.423 16.964ZM196.589 14.819C196.773 14.511 197.015 14.2727 197.315 14.104C197.623 13.928 197.986 13.84 198.404 13.84V15.138H198.085C197.594 15.138 197.22 15.2627 196.963 15.512C196.714 15.7613 196.589 16.194 196.589 16.81V20H195.335V13.939H196.589V14.819ZM201.02 14.962V18.317C201.02 18.5443 201.071 18.7093 201.174 18.812C201.284 18.9073 201.467 18.955 201.724 18.955H202.494V20H201.504C200.939 20 200.507 19.868 200.206 19.604C199.905 19.34 199.755 18.911 199.755 18.317V14.962H199.04V13.939H199.755V12.432H201.02V13.939H202.494V14.962H201.02ZM206.708 13.84C207.184 13.84 207.61 13.939 207.984 14.137C208.365 14.335 208.662 14.6283 208.875 15.017C209.087 15.4057 209.194 15.875 209.194 16.425V20H207.951V16.612C207.951 16.0693 207.815 15.655 207.544 15.369C207.272 15.0757 206.902 14.929 206.433 14.929C205.963 14.929 205.589 15.0757 205.311 15.369C205.039 15.655 204.904 16.0693 204.904 16.612V20H203.65V13.939H204.904V14.632C205.109 14.3827 205.369 14.1883 205.685 14.049C206.007 13.9097 206.348 13.84 206.708 13.84ZM216.348 16.821C216.348 17.0483 216.334 17.2537 216.304 17.437H211.673C211.71 17.921 211.89 18.3097 212.212 18.603C212.535 18.8963 212.931 19.043 213.4 19.043C214.075 19.043 214.552 18.7607 214.83 18.196H216.183C216 18.7533 215.666 19.2117 215.182 19.571C214.706 19.923 214.112 20.099 213.4 20.099C212.821 20.099 212.3 19.9707 211.838 19.714C211.384 19.45 211.024 19.0833 210.76 18.614C210.504 18.1373 210.375 17.5873 210.375 16.964C210.375 16.3407 210.5 15.7943 210.749 15.325C211.006 14.8483 211.362 14.4817 211.816 14.225C212.278 13.9683 212.806 13.84 213.4 13.84C213.972 13.84 214.482 13.9647 214.929 14.214C215.377 14.4633 215.725 14.8153 215.974 15.27C216.224 15.7173 216.348 16.2343 216.348 16.821ZM215.039 16.425C215.032 15.963 214.867 15.5927 214.544 15.314C214.222 15.0353 213.822 14.896 213.345 14.896C212.913 14.896 212.542 15.0353 212.234 15.314C211.926 15.5853 211.743 15.9557 211.684 16.425H215.039ZM218.836 14.819C219.02 14.511 219.262 14.2727 219.562 14.104C219.87 13.928 220.233 13.84 220.651 13.84V15.138H220.332C219.841 15.138 219.467 15.2627 219.21 15.512C218.961 15.7613 218.836 16.194 218.836 16.81V20H217.582V13.939H218.836V14.819ZM227.29 20.099C226.718 20.099 226.201 19.9707 225.739 19.714C225.277 19.45 224.914 19.0833 224.65 18.614C224.386 18.1373 224.254 17.5873 224.254 16.964C224.254 16.348 224.39 15.8017 224.661 15.325C224.933 14.8483 225.303 14.4817 225.772 14.225C226.242 13.9683 226.766 13.84 227.345 13.84C227.925 13.84 228.449 13.9683 228.918 14.225C229.388 14.4817 229.758 14.8483 230.029 15.325C230.301 15.8017 230.436 16.348 230.436 16.964C230.436 17.58 230.297 18.1263 230.018 18.603C229.74 19.0797 229.358 19.45 228.874 19.714C228.398 19.9707 227.87 20.099 227.29 20.099ZM227.29 19.01C227.613 19.01 227.914 18.933 228.192 18.779C228.478 18.625 228.709 18.394 228.885 18.086C229.061 17.778 229.149 17.404 229.149 16.964C229.149 16.524 229.065 16.1537 228.896 15.853C228.728 15.545 228.504 15.314 228.225 15.16C227.947 15.006 227.646 14.929 227.323 14.929C227.001 14.929 226.7 15.006 226.421 15.16C226.15 15.314 225.934 15.545 225.772 15.853C225.611 16.1537 225.53 16.524 225.53 16.964C225.53 17.6167 225.695 18.1227 226.025 18.482C226.363 18.834 226.784 19.01 227.29 19.01ZM234.734 13.84C235.211 13.84 235.636 13.939 236.01 14.137C236.391 14.335 236.688 14.6283 236.901 15.017C237.114 15.4057 237.22 15.875 237.22 16.425V20H235.977V16.612C235.977 16.0693 235.841 15.655 235.57 15.369C235.299 15.0757 234.928 14.929 234.459 14.929C233.99 14.929 233.616 15.0757 233.337 15.369C233.066 15.655 232.93 16.0693 232.93 16.612V20H231.676V13.939H232.93V14.632C233.135 14.3827 233.396 14.1883 233.711 14.049C234.034 13.9097 234.375 13.84 234.734 13.84ZM244.306 20.099C243.734 20.099 243.217 19.9707 242.755 19.714C242.293 19.45 241.93 19.0833 241.666 18.614C241.402 18.1373 241.27 17.5873 241.27 16.964C241.27 16.348 241.406 15.8017 241.677 15.325C241.948 14.8483 242.319 14.4817 242.788 14.225C243.257 13.9683 243.782 13.84 244.361 13.84C244.94 13.84 245.465 13.9683 245.934 14.225C246.403 14.4817 246.774 14.8483 247.045 15.325C247.316 15.8017 247.452 16.348 247.452 16.964C247.452 17.58 247.313 18.1263 247.034 18.603C246.755 19.0797 246.374 19.45 245.89 19.714C245.413 19.9707 244.885 20.099 244.306 20.099ZM244.306 19.01C244.629 19.01 244.929 18.933 245.208 18.779C245.494 18.625 245.725 18.394 245.901 18.086C246.077 17.778 246.165 17.404 246.165 16.964C246.165 16.524 246.081 16.1537 245.912 15.853C245.743 15.545 245.52 15.314 245.241 15.16C244.962 15.006 244.662 14.929 244.339 14.929C244.016 14.929 243.716 15.006 243.437 15.16C243.166 15.314 242.949 15.545 242.788 15.853C242.627 16.1537 242.546 16.524 242.546 16.964C242.546 17.6167 242.711 18.1227 243.041 18.482C243.378 18.834 243.8 19.01 244.306 19.01ZM251.75 13.84C252.226 13.84 252.652 13.939 253.026 14.137C253.407 14.335 253.704 14.6283 253.917 15.017C254.129 15.4057 254.236 15.875 254.236 16.425V20H252.993V16.612C252.993 16.0693 252.857 15.655 252.586 15.369C252.314 15.0757 251.944 14.929 251.475 14.929C251.005 14.929 250.631 15.0757 250.353 15.369C250.081 15.655 249.946 16.0693 249.946 16.612V20H248.692V13.939H249.946V14.632C250.151 14.3827 250.411 14.1883 250.727 14.049C251.049 13.9097 251.39 13.84 251.75 13.84ZM257.089 11.86V20H255.835V11.86H257.089ZM259.374 13.136C259.146 13.136 258.956 13.059 258.802 12.905C258.648 12.751 258.571 12.5603 258.571 12.333C258.571 12.1057 258.648 11.915 258.802 11.761C258.956 11.607 259.146 11.53 259.374 11.53C259.594 11.53 259.781 11.607 259.935 11.761C260.089 11.915 260.166 12.1057 260.166 12.333C260.166 12.5603 260.089 12.751 259.935 12.905C259.781 13.059 259.594 13.136 259.374 13.136ZM259.99 13.939V20H258.736V13.939H259.99ZM264.694 13.84C265.171 13.84 265.596 13.939 265.97 14.137C266.351 14.335 266.648 14.6283 266.861 15.017C267.074 15.4057 267.18 15.875 267.18 16.425V20H265.937V16.612C265.937 16.0693 265.801 15.655 265.53 15.369C265.259 15.0757 264.888 14.929 264.419 14.929C263.95 14.929 263.576 15.0757 263.297 15.369C263.026 15.655 262.89 16.0693 262.89 16.612V20H261.636V13.939H262.89V14.632C263.095 14.3827 263.356 14.1883 263.671 14.049C263.994 13.9097 264.335 13.84 264.694 13.84ZM274.335 16.821C274.335 17.0483 274.32 17.2537 274.291 17.437H269.66C269.696 17.921 269.876 18.3097 270.199 18.603C270.521 18.8963 270.917 19.043 271.387 19.043C272.061 19.043 272.538 18.7607 272.817 18.196H274.17C273.986 18.7533 273.653 19.2117 273.169 19.571C272.692 19.923 272.098 20.099 271.387 20.099C270.807 20.099 270.287 19.9707 269.825 19.714C269.37 19.45 269.011 19.0833 268.747 18.614C268.49 18.1373 268.362 17.5873 268.362 16.964C268.362 16.3407 268.486 15.7943 268.736 15.325C268.992 14.8483 269.348 14.4817 269.803 14.225C270.265 13.9683 270.793 13.84 271.387 13.84C271.959 13.84 272.468 13.9647 272.916 14.214C273.363 14.4633 273.711 14.8153 273.961 15.27C274.21 15.7173 274.335 16.2343 274.335 16.821ZM273.026 16.425C273.018 15.963 272.853 15.5927 272.531 15.314C272.208 15.0353 271.808 14.896 271.332 14.896C270.899 14.896 270.529 15.0353 270.221 15.314C269.913 15.5853 269.729 15.9557 269.671 16.425H273.026Z" fill="#424D65"/>
</svg>
