<svg width="239" height="57" viewBox="0 0 239 57" fill="none" xmlns="http://www.w3.org/2000/svg">
<rect x="0.5" y="0.5" width="233" height="44" rx="3.5" fill="#E0EDFF" stroke="#CCDBF1"/>
<path d="M22.26 17.27L19.04 23.472V27H17.444V23.472L14.21 17.27H15.988L18.242 22.044L20.496 17.27H22.26ZM26.8726 27.126C26.1446 27.126 25.4866 26.9627 24.8986 26.636C24.3106 26.3 23.8486 25.8333 23.5126 25.236C23.1766 24.6293 23.0086 23.9293 23.0086 23.136C23.0086 22.352 23.1812 21.6567 23.5266 21.05C23.8719 20.4433 24.3432 19.9767 24.9406 19.65C25.5379 19.3233 26.2052 19.16 26.9426 19.16C27.6799 19.16 28.3472 19.3233 28.9446 19.65C29.5419 19.9767 30.0132 20.4433 30.3586 21.05C30.7039 21.6567 30.8766 22.352 30.8766 23.136C30.8766 23.92 30.6992 24.6153 30.3446 25.222C29.9899 25.8287 29.5046 26.3 28.8886 26.636C28.2819 26.9627 27.6099 27.126 26.8726 27.126ZM26.8726 25.74C27.2832 25.74 27.6659 25.642 28.0206 25.446C28.3846 25.25 28.6786 24.956 28.9026 24.564C29.1266 24.172 29.2386 23.696 29.2386 23.136C29.2386 22.576 29.1312 22.1047 28.9166 21.722C28.7019 21.33 28.4172 21.036 28.0626 20.84C27.7079 20.644 27.3252 20.546 26.9146 20.546C26.5039 20.546 26.1212 20.644 25.7666 20.84C25.4212 21.036 25.1459 21.33 24.9406 21.722C24.7352 22.1047 24.6326 22.576 24.6326 23.136C24.6326 23.9667 24.8426 24.6107 25.2626 25.068C25.6919 25.516 26.2286 25.74 26.8726 25.74ZM39.4403 19.286V27H37.8443V26.09C37.5923 26.4073 37.261 26.6593 36.8503 26.846C36.449 27.0233 36.0196 27.112 35.5623 27.112C34.9556 27.112 34.4096 26.986 33.9243 26.734C33.4483 26.482 33.0703 26.1087 32.7903 25.614C32.5196 25.1193 32.3843 24.522 32.3843 23.822V19.286H33.9663V23.584C33.9663 24.2747 34.139 24.8067 34.4843 25.18C34.8296 25.544 35.301 25.726 35.8983 25.726C36.4956 25.726 36.967 25.544 37.3123 25.18C37.667 24.8067 37.8443 24.2747 37.8443 23.584V19.286H39.4403ZM43.1421 20.406C43.3754 20.014 43.6834 19.7107 44.0661 19.496C44.4581 19.272 44.9201 19.16 45.4521 19.16V20.812H45.0461C44.4208 20.812 43.9448 20.9707 43.6181 21.288C43.3008 21.6053 43.1421 22.156 43.1421 22.94V27H41.5461V19.286H43.1421V20.406ZM57.6259 22.954C57.6259 23.2433 57.6072 23.5047 57.5699 23.738H51.6759C51.7225 24.354 51.9512 24.8487 52.3619 25.222C52.7725 25.5953 53.2765 25.782 53.8739 25.782C54.7325 25.782 55.3392 25.4227 55.6939 24.704H57.4159C57.1825 25.4133 56.7579 25.9967 56.1419 26.454C55.5352 26.902 54.7792 27.126 53.8739 27.126C53.1365 27.126 52.4739 26.9627 51.8859 26.636C51.3072 26.3 50.8499 25.8333 50.5139 25.236C50.1872 24.6293 50.0239 23.9293 50.0239 23.136C50.0239 22.3427 50.1825 21.6473 50.4999 21.05C50.8265 20.4433 51.2792 19.9767 51.8579 19.65C52.4459 19.3233 53.1179 19.16 53.8739 19.16C54.6019 19.16 55.2505 19.3187 55.8199 19.636C56.3892 19.9533 56.8325 20.4013 57.1499 20.98C57.4672 21.5493 57.6259 22.2073 57.6259 22.954ZM55.9599 22.45C55.9505 21.862 55.7405 21.3907 55.3299 21.036C54.9192 20.6813 54.4105 20.504 53.8039 20.504C53.2532 20.504 52.7819 20.6813 52.3899 21.036C51.9979 21.3813 51.7645 21.8527 51.6899 22.45H55.9599ZM68.5345 19.16C69.1412 19.16 69.6825 19.286 70.1585 19.538C70.6438 19.79 71.0218 20.1633 71.2925 20.658C71.5725 21.1527 71.7125 21.75 71.7125 22.45V27H70.1305V22.688C70.1305 21.9973 69.9578 21.47 69.6125 21.106C69.2672 20.7327 68.7958 20.546 68.1985 20.546C67.6012 20.546 67.1252 20.7327 66.7705 21.106C66.4252 21.47 66.2525 21.9973 66.2525 22.688V27H64.6705V22.688C64.6705 21.9973 64.4978 21.47 64.1525 21.106C63.8072 20.7327 63.3358 20.546 62.7385 20.546C62.1412 20.546 61.6652 20.7327 61.3105 21.106C60.9652 21.47 60.7925 21.9973 60.7925 22.688V27H59.1965V19.286H60.7925V20.168C61.0538 19.8507 61.3852 19.6033 61.7865 19.426C62.1878 19.2487 62.6172 19.16 63.0745 19.16C63.6905 19.16 64.2412 19.2907 64.7265 19.552C65.2118 19.8133 65.5852 20.1913 65.8465 20.686C66.0798 20.2193 66.4438 19.8507 66.9385 19.58C67.4332 19.3 67.9652 19.16 68.5345 19.16ZM73.2114 23.108C73.2114 22.3333 73.37 21.6473 73.6874 21.05C74.014 20.4527 74.4527 19.9907 75.0034 19.664C75.5634 19.328 76.1794 19.16 76.8514 19.16C77.458 19.16 77.9854 19.2813 78.4334 19.524C78.8907 19.7573 79.2547 20.0513 79.5254 20.406V19.286H81.1354V27H79.5254V25.852C79.2547 26.216 78.886 26.5193 78.4194 26.762C77.9527 27.0047 77.4207 27.126 76.8234 27.126C76.1607 27.126 75.554 26.958 75.0034 26.622C74.4527 26.2767 74.014 25.8007 73.6874 25.194C73.37 24.578 73.2114 23.8827 73.2114 23.108ZM79.5254 23.136C79.5254 22.604 79.4134 22.142 79.1894 21.75C78.9747 21.358 78.69 21.0593 78.3354 20.854C77.9807 20.6487 77.598 20.546 77.1874 20.546C76.7767 20.546 76.394 20.6487 76.0394 20.854C75.6847 21.05 75.3954 21.344 75.1714 21.736C74.9567 22.1187 74.8494 22.576 74.8494 23.108C74.8494 23.64 74.9567 24.1067 75.1714 24.508C75.3954 24.9093 75.6847 25.2173 76.0394 25.432C76.4034 25.6373 76.786 25.74 77.1874 25.74C77.598 25.74 77.9807 25.6373 78.3354 25.432C78.69 25.2267 78.9747 24.928 79.1894 24.536C79.4134 24.1347 79.5254 23.668 79.5254 23.136ZM84.0436 18.264C83.7543 18.264 83.5116 18.166 83.3156 17.97C83.1196 17.774 83.0216 17.5313 83.0216 17.242C83.0216 16.9527 83.1196 16.71 83.3156 16.514C83.5116 16.318 83.7543 16.22 84.0436 16.22C84.3236 16.22 84.5616 16.318 84.7576 16.514C84.9536 16.71 85.0516 16.9527 85.0516 17.242C85.0516 17.5313 84.9536 17.774 84.7576 17.97C84.5616 18.166 84.3236 18.264 84.0436 18.264ZM84.8276 19.286V27H83.2316V19.286H84.8276ZM88.519 16.64V27H86.923V16.64H88.519ZM93.7192 23.108C93.7192 22.3333 93.8778 21.6473 94.1952 21.05C94.5218 20.4527 94.9605 19.9907 95.5112 19.664C96.0712 19.328 96.6872 19.16 97.3592 19.16C97.9658 19.16 98.4932 19.2813 98.9412 19.524C99.3985 19.7573 99.7625 20.0513 100.033 20.406V19.286H101.643V27H100.033V25.852C99.7625 26.216 99.3938 26.5193 98.9272 26.762C98.4605 27.0047 97.9285 27.126 97.3312 27.126C96.6685 27.126 96.0618 26.958 95.5112 26.622C94.9605 26.2767 94.5218 25.8007 94.1952 25.194C93.8778 24.578 93.7192 23.8827 93.7192 23.108ZM100.033 23.136C100.033 22.604 99.9212 22.142 99.6972 21.75C99.4825 21.358 99.1978 21.0593 98.8432 20.854C98.4885 20.6487 98.1058 20.546 97.6952 20.546C97.2845 20.546 96.9018 20.6487 96.5472 20.854C96.1925 21.05 95.9032 21.344 95.6792 21.736C95.4645 22.1187 95.3572 22.576 95.3572 23.108C95.3572 23.64 95.4645 24.1067 95.6792 24.508C95.9032 24.9093 96.1925 25.2173 96.5472 25.432C96.9112 25.6373 97.2938 25.74 97.6952 25.74C98.1058 25.74 98.4885 25.6373 98.8432 25.432C99.1978 25.2267 99.4825 24.928 99.6972 24.536C99.9212 24.1347 100.033 23.668 100.033 23.136ZM103.207 23.108C103.207 22.3333 103.366 21.6473 103.683 21.05C104.01 20.4527 104.449 19.9907 104.999 19.664C105.559 19.328 106.18 19.16 106.861 19.16C107.365 19.16 107.86 19.272 108.345 19.496C108.84 19.7107 109.232 20 109.521 20.364V16.64H111.131V27H109.521V25.838C109.26 26.2113 108.896 26.5193 108.429 26.762C107.972 27.0047 107.445 27.126 106.847 27.126C106.175 27.126 105.559 26.958 104.999 26.622C104.449 26.2767 104.01 25.8007 103.683 25.194C103.366 24.578 103.207 23.8827 103.207 23.108ZM109.521 23.136C109.521 22.604 109.409 22.142 109.185 21.75C108.971 21.358 108.686 21.0593 108.331 20.854C107.977 20.6487 107.594 20.546 107.183 20.546C106.773 20.546 106.39 20.6487 106.035 20.854C105.681 21.05 105.391 21.344 105.167 21.736C104.953 22.1187 104.845 22.576 104.845 23.108C104.845 23.64 104.953 24.1067 105.167 24.508C105.391 24.9093 105.681 25.2173 106.035 25.432C106.399 25.6373 106.782 25.74 107.183 25.74C107.594 25.74 107.977 25.6373 108.331 25.432C108.686 25.2267 108.971 24.928 109.185 24.536C109.409 24.1347 109.521 23.668 109.521 23.136ZM112.696 23.108C112.696 22.3333 112.854 21.6473 113.172 21.05C113.498 20.4527 113.937 19.9907 114.488 19.664C115.048 19.328 115.668 19.16 116.35 19.16C116.854 19.16 117.348 19.272 117.834 19.496C118.328 19.7107 118.72 20 119.01 20.364V16.64H120.62V27H119.01V25.838C118.748 26.2113 118.384 26.5193 117.918 26.762C117.46 27.0047 116.933 27.126 116.336 27.126C115.664 27.126 115.048 26.958 114.488 26.622C113.937 26.2767 113.498 25.8007 113.172 25.194C112.854 24.578 112.696 23.8827 112.696 23.108ZM119.01 23.136C119.01 22.604 118.898 22.142 118.674 21.75C118.459 21.358 118.174 21.0593 117.82 20.854C117.465 20.6487 117.082 20.546 116.672 20.546C116.261 20.546 115.878 20.6487 115.524 20.854C115.169 21.05 114.88 21.344 114.656 21.736C114.441 22.1187 114.334 22.576 114.334 23.108C114.334 23.64 114.441 24.1067 114.656 24.508C114.88 24.9093 115.169 25.2173 115.524 25.432C115.888 25.6373 116.27 25.74 116.672 25.74C117.082 25.74 117.465 25.6373 117.82 25.432C118.174 25.2267 118.459 24.928 118.674 24.536C118.898 24.1347 119.01 23.668 119.01 23.136ZM124.312 20.406C124.545 20.014 124.853 19.7107 125.236 19.496C125.628 19.272 126.09 19.16 126.622 19.16V20.812H126.216C125.591 20.812 125.115 20.9707 124.788 21.288C124.471 21.6053 124.312 22.156 124.312 22.94V27H122.716V19.286H124.312V20.406ZM135.159 22.954C135.159 23.2433 135.14 23.5047 135.103 23.738H129.209C129.256 24.354 129.484 24.8487 129.895 25.222C130.306 25.5953 130.81 25.782 131.407 25.782C132.266 25.782 132.872 25.4227 133.227 24.704H134.949C134.716 25.4133 134.291 25.9967 133.675 26.454C133.068 26.902 132.312 27.126 131.407 27.126C130.67 27.126 130.007 26.9627 129.419 26.636C128.84 26.3 128.383 25.8333 128.047 25.236C127.72 24.6293 127.557 23.9293 127.557 23.136C127.557 22.3427 127.716 21.6473 128.033 21.05C128.36 20.4433 128.812 19.9767 129.391 19.65C129.979 19.3233 130.651 19.16 131.407 19.16C132.135 19.16 132.784 19.3187 133.353 19.636C133.922 19.9533 134.366 20.4013 134.683 20.98C135 21.5493 135.159 22.2073 135.159 22.954ZM133.493 22.45C133.484 21.862 133.274 21.3907 132.863 21.036C132.452 20.6813 131.944 20.504 131.337 20.504C130.786 20.504 130.315 20.6813 129.923 21.036C129.531 21.3813 129.298 21.8527 129.223 22.45H133.493ZM139.53 27.126C138.923 27.126 138.377 27.0187 137.892 26.804C137.416 26.58 137.038 26.2813 136.758 25.908C136.478 25.5253 136.328 25.1007 136.31 24.634H137.962C137.99 24.9607 138.144 25.236 138.424 25.46C138.713 25.6747 139.072 25.782 139.502 25.782C139.95 25.782 140.295 25.698 140.538 25.53C140.79 25.3527 140.916 25.1287 140.916 24.858C140.916 24.5687 140.776 24.354 140.496 24.214C140.225 24.074 139.791 23.92 139.194 23.752C138.615 23.5933 138.144 23.4393 137.78 23.29C137.416 23.1407 137.098 22.912 136.828 22.604C136.566 22.296 136.436 21.89 136.436 21.386C136.436 20.9753 136.557 20.602 136.8 20.266C137.042 19.9207 137.388 19.65 137.836 19.454C138.293 19.258 138.816 19.16 139.404 19.16C140.281 19.16 140.986 19.384 141.518 19.832C142.059 20.2707 142.348 20.8727 142.386 21.638H140.79C140.762 21.2927 140.622 21.0173 140.37 20.812C140.118 20.6067 139.777 20.504 139.348 20.504C138.928 20.504 138.606 20.5833 138.382 20.742C138.158 20.9007 138.046 21.1107 138.046 21.372C138.046 21.5773 138.12 21.75 138.27 21.89C138.419 22.03 138.601 22.142 138.816 22.226C139.03 22.3007 139.348 22.3987 139.768 22.52C140.328 22.6693 140.785 22.8233 141.14 22.982C141.504 23.1313 141.816 23.3553 142.078 23.654C142.339 23.9527 142.474 24.3493 142.484 24.844C142.484 25.2827 142.362 25.6747 142.12 26.02C141.877 26.3653 141.532 26.636 141.084 26.832C140.645 27.028 140.127 27.126 139.53 27.126ZM147.008 27.126C146.402 27.126 145.856 27.0187 145.37 26.804C144.894 26.58 144.516 26.2813 144.236 25.908C143.956 25.5253 143.807 25.1007 143.788 24.634H145.44C145.468 24.9607 145.622 25.236 145.902 25.46C146.192 25.6747 146.551 25.782 146.98 25.782C147.428 25.782 147.774 25.698 148.016 25.53C148.268 25.3527 148.394 25.1287 148.394 24.858C148.394 24.5687 148.254 24.354 147.974 24.214C147.704 24.074 147.27 23.92 146.672 23.752C146.094 23.5933 145.622 23.4393 145.258 23.29C144.894 23.1407 144.577 22.912 144.306 22.604C144.045 22.296 143.914 21.89 143.914 21.386C143.914 20.9753 144.036 20.602 144.278 20.266C144.521 19.9207 144.866 19.65 145.314 19.454C145.772 19.258 146.294 19.16 146.882 19.16C147.76 19.16 148.464 19.384 148.996 19.832C149.538 20.2707 149.827 20.8727 149.864 21.638H148.268C148.24 21.2927 148.1 21.0173 147.848 20.812C147.596 20.6067 147.256 20.504 146.826 20.504C146.406 20.504 146.084 20.5833 145.86 20.742C145.636 20.9007 145.524 21.1107 145.524 21.372C145.524 21.5773 145.599 21.75 145.748 21.89C145.898 22.03 146.08 22.142 146.294 22.226C146.509 22.3007 146.826 22.3987 147.246 22.52C147.806 22.6693 148.264 22.8233 148.618 22.982C148.982 23.1313 149.295 23.3553 149.556 23.654C149.818 23.9527 149.953 24.3493 149.962 24.844C149.962 25.2827 149.841 25.6747 149.598 26.02C149.356 26.3653 149.01 26.636 148.562 26.832C148.124 27.028 147.606 27.126 147.008 27.126Z" fill="#7A8398"/>
<g filter="url(#filter0_d_1_1213)">
<rect x="192" y="4" width="37" height="37" rx="4" fill="url(#paint0_linear_1_1213)"/>
</g>
<path d="M205.006 28L217 23L205.006 18L205 21.8889L213.571 23L205 24.1111L205.006 28Z" fill="white"/>
<defs>
<filter id="filter0_d_1_1213" x="182" y="0" width="57" height="57" filterUnits="userSpaceOnUse" color-interpolation-filters="sRGB">
<feFlood flood-opacity="0" result="BackgroundImageFix"/>
<feColorMatrix in="SourceAlpha" type="matrix" values="0 0 0 0 0 0 0 0 0 0 0 0 0 0 0 0 0 0 127 0" result="hardAlpha"/>
<feOffset dy="6"/>
<feGaussianBlur stdDeviation="5"/>
<feColorMatrix type="matrix" values="0 0 0 0 0.0470588 0 0 0 0 0.670588 0 0 0 0 1 0 0 0 0.2 0"/>
<feBlend mode="normal" in2="BackgroundImageFix" result="effect1_dropShadow_1_1213"/>
<feBlend mode="normal" in="SourceGraphic" in2="effect1_dropShadow_1_1213" result="shape"/>
</filter>
<linearGradient id="paint0_linear_1_1213" x1="192.779" y1="26.0807" x2="228.513" y2="26.1124" gradientUnits="userSpaceOnUse">
<stop offset="0.265795" stop-color="#45BFFF"/>
<stop offset="1" stop-color="#00A7FF"/>
</linearGradient>
</defs>
</svg>
