<svg width="218" height="100" viewBox="0 0 218 100" fill="none" xmlns="http://www.w3.org/2000/svg">
<g filter="url(#filter0_d_1_1853)">
<rect x="14" width="190" height="62" rx="8" fill="url(#paint0_linear_1_1853)"/>
</g>
<path d="M59.1772 29.168C58.9532 28.7573 58.6452 28.4447 58.2532 28.23C57.8612 28.0153 57.4039 27.908 56.8812 27.908C56.3026 27.908 55.7892 28.0387 55.3412 28.3C54.8932 28.5613 54.5432 28.9347 54.2912 29.42C54.0392 29.9053 53.9132 30.4653 53.9132 31.1C53.9132 31.7533 54.0392 32.3227 54.2912 32.808C54.5526 33.2933 54.9119 33.6667 55.3692 33.928C55.8266 34.1893 56.3586 34.32 56.9652 34.32C57.7119 34.32 58.3232 34.124 58.7992 33.732C59.2752 33.3307 59.5879 32.7753 59.7372 32.066H56.3772V30.568H61.6692V32.276C61.5386 32.9573 61.2586 33.5873 60.8292 34.166C60.3999 34.7447 59.8446 35.2113 59.1632 35.566C58.4912 35.9113 57.7352 36.084 56.8952 36.084C55.9526 36.084 55.0986 35.874 54.3332 35.454C53.5772 35.0247 52.9799 34.432 52.5412 33.676C52.1119 32.92 51.8972 32.0613 51.8972 31.1C51.8972 30.1387 52.1119 29.28 52.5412 28.524C52.9799 27.7587 53.5772 27.166 54.3332 26.746C55.0986 26.3167 55.9479 26.102 56.8812 26.102C57.9826 26.102 58.9392 26.3727 59.7512 26.914C60.5632 27.446 61.1232 28.1973 61.4312 29.168H59.1772ZM70.3293 31.954C70.3293 32.234 70.3107 32.486 70.2733 32.71H64.6033C64.65 33.27 64.846 33.7087 65.1913 34.026C65.5367 34.3433 65.9613 34.502 66.4653 34.502C67.1933 34.502 67.7113 34.1893 68.0193 33.564H70.1333C69.9093 34.3107 69.48 34.9267 68.8453 35.412C68.2107 35.888 67.4313 36.126 66.5073 36.126C65.7607 36.126 65.0887 35.9627 64.4913 35.636C63.9033 35.3 63.4413 34.8287 63.1053 34.222C62.7787 33.6153 62.6153 32.9153 62.6153 32.122C62.6153 31.3193 62.7787 30.6147 63.1053 30.008C63.432 29.4013 63.8893 28.9347 64.4773 28.608C65.0653 28.2813 65.742 28.118 66.5073 28.118C67.2447 28.118 67.9027 28.2767 68.4813 28.594C69.0693 28.9113 69.522 29.364 69.8393 29.952C70.166 30.5307 70.3293 31.198 70.3293 31.954ZM68.2993 31.394C68.29 30.89 68.108 30.4887 67.7533 30.19C67.3987 29.882 66.9647 29.728 66.4513 29.728C65.966 29.728 65.5553 29.8773 65.2193 30.176C64.8927 30.4653 64.692 30.8713 64.6173 31.394H68.2993ZM74.0419 29.854V33.606C74.0419 33.8673 74.1026 34.0587 74.2239 34.18C74.3546 34.292 74.5693 34.348 74.8679 34.348H75.7779V36H74.5459C72.8939 36 72.0679 35.1973 72.0679 33.592V29.854H71.1439V28.244H72.0679V26.326H74.0419V28.244H75.7779V29.854H74.0419ZM83.8976 36.098C83.2163 36.098 82.6003 35.9813 82.0496 35.748C81.5083 35.5147 81.079 35.1787 80.7616 34.74C80.4443 34.3013 80.281 33.7833 80.2716 33.186H82.3716C82.3996 33.5873 82.5396 33.9047 82.7916 34.138C83.053 34.3713 83.4076 34.488 83.8556 34.488C84.313 34.488 84.6723 34.3807 84.9336 34.166C85.195 33.942 85.3256 33.6527 85.3256 33.298C85.3256 33.0087 85.237 32.7707 85.0596 32.584C84.8823 32.3973 84.6583 32.2527 84.3876 32.15C84.1263 32.038 83.7623 31.9167 83.2956 31.786C82.661 31.5993 82.143 31.4173 81.7416 31.24C81.3496 31.0533 81.009 30.778 80.7196 30.414C80.4396 30.0407 80.2996 29.546 80.2996 28.93C80.2996 28.3513 80.4443 27.8473 80.7336 27.418C81.023 26.9887 81.429 26.662 81.9516 26.438C82.4743 26.2047 83.0716 26.088 83.7436 26.088C84.7516 26.088 85.5683 26.3353 86.1936 26.83C86.8283 27.3153 87.1783 27.9967 87.2436 28.874H85.0876C85.069 28.538 84.9243 28.2627 84.6536 28.048C84.3923 27.824 84.0423 27.712 83.6036 27.712C83.221 27.712 82.913 27.81 82.6796 28.006C82.4556 28.202 82.3436 28.4867 82.3436 28.86C82.3436 29.1213 82.4276 29.3407 82.5956 29.518C82.773 29.686 82.9876 29.826 83.2396 29.938C83.501 30.0407 83.865 30.162 84.3316 30.302C84.9663 30.4887 85.4843 30.6753 85.8856 30.862C86.287 31.0487 86.6323 31.3287 86.9216 31.702C87.211 32.0753 87.3556 32.5653 87.3556 33.172C87.3556 33.6947 87.2203 34.18 86.9496 34.628C86.679 35.076 86.2823 35.4353 85.7596 35.706C85.237 35.9673 84.6163 36.098 83.8976 36.098ZM91.3369 29.854V33.606C91.3369 33.8673 91.3975 34.0587 91.5189 34.18C91.6495 34.292 91.8642 34.348 92.1629 34.348H93.0729V36H91.8409C90.1889 36 89.3629 35.1973 89.3629 33.592V29.854H88.4389V28.244H89.3629V26.326H91.3369V28.244H93.0729V29.854H91.3369ZM93.9786 32.094C93.9786 31.31 94.1326 30.6147 94.4406 30.008C94.7579 29.4013 95.1826 28.9347 95.7146 28.608C96.2559 28.2813 96.8579 28.118 97.5206 28.118C98.0993 28.118 98.6033 28.2347 99.0326 28.468C99.4713 28.7013 99.8213 28.9953 100.083 29.35V28.244H102.057V36H100.083V34.866C99.8306 35.23 99.4806 35.5333 99.0326 35.776C98.5939 36.0093 98.0853 36.126 97.5066 36.126C96.8533 36.126 96.2559 35.958 95.7146 35.622C95.1826 35.286 94.7579 34.8147 94.4406 34.208C94.1326 33.592 93.9786 32.8873 93.9786 32.094ZM100.083 32.122C100.083 31.646 99.9893 31.24 99.8026 30.904C99.6159 30.5587 99.3639 30.2973 99.0466 30.12C98.7293 29.9333 98.3886 29.84 98.0246 29.84C97.6606 29.84 97.3246 29.9287 97.0166 30.106C96.7086 30.2833 96.4566 30.5447 96.2606 30.89C96.0739 31.226 95.9806 31.6273 95.9806 32.094C95.9806 32.5607 96.0739 32.9713 96.2606 33.326C96.4566 33.6713 96.7086 33.9373 97.0166 34.124C97.3339 34.3107 97.6699 34.404 98.0246 34.404C98.3886 34.404 98.7293 34.3153 99.0466 34.138C99.3639 33.9513 99.6159 33.69 99.8026 33.354C99.9893 33.0087 100.083 32.598 100.083 32.122ZM105.931 29.448C106.183 29.0373 106.51 28.7153 106.911 28.482C107.322 28.2487 107.788 28.132 108.311 28.132V30.19H107.793C107.177 30.19 106.71 30.3347 106.393 30.624C106.085 30.9133 105.931 31.4173 105.931 32.136V36H103.971V28.244H105.931V29.448ZM111.913 29.854V33.606C111.913 33.8673 111.974 34.0587 112.095 34.18C112.226 34.292 112.44 34.348 112.739 34.348H113.649V36H112.417C110.765 36 109.939 35.1973 109.939 33.592V29.854H109.015V28.244H109.939V26.326H111.913V28.244H113.649V29.854H111.913ZM122.269 31.954C122.269 32.234 122.25 32.486 122.213 32.71H116.543C116.589 33.27 116.785 33.7087 117.131 34.026C117.476 34.3433 117.901 34.502 118.405 34.502C119.133 34.502 119.651 34.1893 119.959 33.564H122.073C121.849 34.3107 121.419 34.9267 120.785 35.412C120.15 35.888 119.371 36.126 118.447 36.126C117.7 36.126 117.028 35.9627 116.431 35.636C115.843 35.3 115.381 34.8287 115.045 34.222C114.718 33.6153 114.555 32.9153 114.555 32.122C114.555 31.3193 114.718 30.6147 115.045 30.008C115.371 29.4013 115.829 28.9347 116.417 28.608C117.005 28.2813 117.681 28.118 118.447 28.118C119.184 28.118 119.842 28.2767 120.421 28.594C121.009 28.9113 121.461 29.364 121.779 29.952C122.105 30.5307 122.269 31.198 122.269 31.954ZM120.239 31.394C120.229 30.89 120.047 30.4887 119.693 30.19C119.338 29.882 118.904 29.728 118.391 29.728C117.905 29.728 117.495 29.8773 117.159 30.176C116.832 30.4653 116.631 30.8713 116.557 31.394H120.239ZM123.195 32.094C123.195 31.31 123.349 30.6147 123.657 30.008C123.975 29.4013 124.404 28.9347 124.945 28.608C125.487 28.2813 126.089 28.118 126.751 28.118C127.255 28.118 127.736 28.23 128.193 28.454C128.651 28.6687 129.015 28.958 129.285 29.322V25.64H131.273V36H129.285V34.852C129.043 35.2347 128.702 35.5427 128.263 35.776C127.825 36.0093 127.316 36.126 126.737 36.126C126.084 36.126 125.487 35.958 124.945 35.622C124.404 35.286 123.975 34.8147 123.657 34.208C123.349 33.592 123.195 32.8873 123.195 32.094ZM129.299 32.122C129.299 31.646 129.206 31.24 129.019 30.904C128.833 30.5587 128.581 30.2973 128.263 30.12C127.946 29.9333 127.605 29.84 127.241 29.84C126.877 29.84 126.541 29.9287 126.233 30.106C125.925 30.2833 125.673 30.5447 125.477 30.89C125.291 31.226 125.197 31.6273 125.197 32.094C125.197 32.5607 125.291 32.9713 125.477 33.326C125.673 33.6713 125.925 33.9373 126.233 34.124C126.551 34.3107 126.887 34.404 127.241 34.404C127.605 34.404 127.946 34.3153 128.263 34.138C128.581 33.9513 128.833 33.69 129.019 33.354C129.206 33.0087 129.299 32.598 129.299 32.122ZM144.882 36H142.922L138.484 29.294V36H136.524V26.214H138.484L142.922 32.934V26.214H144.882V36ZM150.263 36.126C149.516 36.126 148.844 35.9627 148.247 35.636C147.649 35.3 147.178 34.8287 146.833 34.222C146.497 33.6153 146.329 32.9153 146.329 32.122C146.329 31.3287 146.501 30.6287 146.847 30.022C147.201 29.4153 147.682 28.9487 148.289 28.622C148.895 28.286 149.572 28.118 150.319 28.118C151.065 28.118 151.742 28.286 152.349 28.622C152.955 28.9487 153.431 29.4153 153.777 30.022C154.131 30.6287 154.309 31.3287 154.309 32.122C154.309 32.9153 154.127 33.6153 153.763 34.222C153.408 34.8287 152.923 35.3 152.307 35.636C151.7 35.9627 151.019 36.126 150.263 36.126ZM150.263 34.418C150.617 34.418 150.949 34.334 151.257 34.166C151.574 33.9887 151.826 33.7273 152.013 33.382C152.199 33.0367 152.293 32.6167 152.293 32.122C152.293 31.3847 152.097 30.82 151.705 30.428C151.322 30.0267 150.851 29.826 150.291 29.826C149.731 29.826 149.259 30.0267 148.877 30.428C148.503 30.82 148.317 31.3847 148.317 32.122C148.317 32.8593 148.499 33.4287 148.863 33.83C149.236 34.222 149.703 34.418 150.263 34.418ZM166.498 28.244L164.23 36H162.116L160.702 30.582L159.288 36H157.16L154.878 28.244H156.866L158.238 34.152L159.722 28.244H161.794L163.25 34.138L164.622 28.244H166.498Z" fill="white"/>
<defs>
<filter id="filter0_d_1_1853" x="0" y="0" width="218" height="100" filterUnits="userSpaceOnUse" color-interpolation-filters="sRGB">
<feFlood flood-opacity="0" result="BackgroundImageFix"/>
<feColorMatrix in="SourceAlpha" type="matrix" values="0 0 0 0 0 0 0 0 0 0 0 0 0 0 0 0 0 0 127 0" result="hardAlpha"/>
<feMorphology radius="16" operator="erode" in="SourceAlpha" result="effect1_dropShadow_1_1853"/>
<feOffset dy="24"/>
<feGaussianBlur stdDeviation="15"/>
<feColorMatrix type="matrix" values="0 0 0 0 0.176471 0 0 0 0 0.717647 0 0 0 0 1 0 0 0 0.25 0"/>
<feBlend mode="normal" in2="BackgroundImageFix" result="effect1_dropShadow_1_1853"/>
<feBlend mode="normal" in="SourceGraphic" in2="effect1_dropShadow_1_1853" result="shape"/>
</filter>
<linearGradient id="paint0_linear_1_1853" x1="18" y1="37" x2="201.5" y2="37.5" gradientUnits="userSpaceOnUse">
<stop offset="0.265795" stop-color="#45BFFF"/>
<stop offset="1" stop-color="#00A7FF"/>
</linearGradient>
</defs>
</svg>
