<svg width="365" height="96" viewBox="0 0 365 96" fill="none" xmlns="http://www.w3.org/2000/svg">
<rect width="365" height="96" rx="25" fill="#001CAF"/>
<path d="M0 25C0 11.1929 11.1929 0 25 0H184V96H25C11.1929 96 0 84.8071 0 71V25Z" fill="#F5F7FF"/>
<path d="M77.526 41.49V54H75.474V45.432L71.658 54H70.236L66.402 45.432V54H64.35V41.49H66.564L70.956 51.3L75.33 41.49H77.526ZM84.525 54.162C83.589 54.162 82.743 53.952 81.987 53.532C81.231 53.1 80.637 52.5 80.205 51.732C79.773 50.952 79.557 50.052 79.557 49.032C79.557 48.024 79.779 47.13 80.223 46.35C80.667 45.57 81.273 44.97 82.041 44.55C82.809 44.13 83.667 43.92 84.615 43.92C85.563 43.92 86.421 44.13 87.189 44.55C87.957 44.97 88.563 45.57 89.007 46.35C89.451 47.13 89.673 48.024 89.673 49.032C89.673 50.04 89.445 50.934 88.989 51.714C88.533 52.494 87.909 53.1 87.117 53.532C86.337 53.952 85.473 54.162 84.525 54.162ZM84.525 52.38C85.053 52.38 85.545 52.254 86.001 52.002C86.469 51.75 86.847 51.372 87.135 50.868C87.423 50.364 87.567 49.752 87.567 49.032C87.567 48.312 87.429 47.706 87.153 47.214C86.877 46.71 86.511 46.332 86.055 46.08C85.599 45.828 85.107 45.702 84.579 45.702C84.051 45.702 83.559 45.828 83.103 46.08C82.659 46.332 82.305 46.71 82.041 47.214C81.777 47.706 81.645 48.312 81.645 49.032C81.645 50.1 81.915 50.928 82.455 51.516C83.007 52.092 83.697 52.38 84.525 52.38ZM96.7056 43.92C97.4856 43.92 98.1816 44.082 98.7936 44.406C99.4176 44.73 99.9036 45.21 100.252 45.846C100.6 46.482 100.774 47.25 100.774 48.15V54H98.7396V48.456C98.7396 47.568 98.5176 46.89 98.0736 46.422C97.6296 45.942 97.0236 45.702 96.2556 45.702C95.4876 45.702 94.8756 45.942 94.4196 46.422C93.9756 46.89 93.7536 47.568 93.7536 48.456V54H91.7016V44.082H93.7536V45.216C94.0896 44.808 94.5156 44.49 95.0316 44.262C95.5596 44.034 96.1176 43.92 96.7056 43.92ZM105.785 45.756V51.246C105.785 51.618 105.869 51.888 106.037 52.056C106.217 52.212 106.517 52.29 106.937 52.29H108.197V54H106.577C105.653 54 104.945 53.784 104.453 53.352C103.961 52.92 103.715 52.218 103.715 51.246V45.756H102.545V44.082H103.715V41.616H105.785V44.082H108.197V45.756H105.785ZM115.218 43.92C115.974 43.92 116.646 44.082 117.234 44.406C117.834 44.73 118.302 45.21 118.638 45.846C118.986 46.482 119.16 47.25 119.16 48.15V54H117.126V48.456C117.126 47.568 116.904 46.89 116.46 46.422C116.016 45.942 115.41 45.702 114.642 45.702C113.874 45.702 113.262 45.942 112.806 46.422C112.362 46.89 112.14 47.568 112.14 48.456V54H110.088V40.68H112.14V45.234C112.488 44.814 112.926 44.49 113.454 44.262C113.994 44.034 114.582 43.92 115.218 43.92ZM123.83 40.68V54H121.778V40.68H123.83ZM135.452 44.082L129.368 58.662H127.244L129.26 53.838L125.354 44.082H127.64L130.43 51.642L133.328 44.082H135.452Z" fill="#001CAF"/>
<path d="M245.836 41.292L241.606 49.374V54H239.536V49.374L235.288 41.292H237.664L240.58 47.178L243.496 41.292H245.836ZM256.585 48.564C256.585 48.9 256.561 49.194 256.513 49.446H248.881C248.917 50.466 249.199 51.222 249.727 51.714C250.255 52.206 250.909 52.452 251.689 52.452C252.373 52.452 252.949 52.278 253.417 51.93C253.897 51.582 254.191 51.12 254.299 50.544H256.495C256.363 51.24 256.087 51.858 255.667 52.398C255.247 52.938 254.701 53.364 254.029 53.676C253.357 53.976 252.607 54.126 251.779 54.126C250.819 54.126 249.967 53.922 249.223 53.514C248.491 53.106 247.915 52.518 247.495 51.75C247.075 50.982 246.865 50.076 246.865 49.032C246.865 48 247.075 47.1 247.495 46.332C247.915 45.564 248.491 44.976 249.223 44.568C249.967 44.16 250.819 43.956 251.779 43.956C252.751 43.956 253.597 44.16 254.317 44.568C255.049 44.964 255.607 45.516 255.991 46.224C256.387 46.92 256.585 47.7 256.585 48.564ZM254.515 48.51C254.539 47.862 254.425 47.322 254.173 46.89C253.933 46.446 253.597 46.122 253.165 45.918C252.745 45.702 252.283 45.594 251.779 45.594C250.975 45.594 250.303 45.84 249.763 46.332C249.223 46.824 248.929 47.55 248.881 48.51H254.515ZM262.544 43.956C263.444 43.956 264.212 44.178 264.848 44.622C265.484 45.066 265.934 45.654 266.198 46.386V44.082H268.25V54H266.198V51.696C265.934 52.428 265.484 53.016 264.848 53.46C264.212 53.904 263.444 54.126 262.544 54.126C261.68 54.126 260.906 53.922 260.222 53.514C259.55 53.106 259.022 52.518 258.638 51.75C258.254 50.982 258.062 50.076 258.062 49.032C258.062 48 258.254 47.1 258.638 46.332C259.022 45.564 259.55 44.976 260.222 44.568C260.906 44.16 261.68 43.956 262.544 43.956ZM263.174 45.756C262.262 45.756 261.53 46.05 260.978 46.638C260.438 47.214 260.168 48.012 260.168 49.032C260.168 50.052 260.438 50.856 260.978 51.444C261.53 52.02 262.262 52.308 263.174 52.308C263.75 52.308 264.266 52.176 264.722 51.912C265.178 51.636 265.538 51.252 265.802 50.76C266.066 50.268 266.198 49.692 266.198 49.032C266.198 48.384 266.066 47.814 265.802 47.322C265.538 46.818 265.178 46.434 264.722 46.17C264.266 45.894 263.75 45.756 263.174 45.756ZM272.765 46.026C273.101 45.378 273.581 44.868 274.205 44.496C274.829 44.112 275.549 43.92 276.365 43.92V46.152H275.753C274.853 46.152 274.127 46.374 273.575 46.818C273.035 47.25 272.765 47.97 272.765 48.978V54H270.713V44.082H272.765V46.026ZM279.954 40.68V54H277.902V40.68H279.954ZM283.607 44.082L286.577 51.372L289.331 44.082H291.617L285.623 58.716H283.337L285.479 53.766L281.303 44.082H283.607Z" fill="white"/>
</svg>
