<svg width="95" height="100" viewBox="0 0 95 100" fill="none" xmlns="http://www.w3.org/2000/svg">
<g filter="url(#filter0_d_1_1615)">
<circle cx="47.5" cy="32.5" r="32.5" fill="#00D9FF"/>
</g>
<g clip-path="url(#clip0_1_1615)">
<path d="M45.3631 26.2122V29.8484L45.6206 30.1059C45.7029 30.1881 47.6799 32.1211 51.5155 32.1211C55.3511 32.1211 57.3281 30.1881 57.4103 30.1058L57.6678 29.8484V26.2122L59.4256 25.5091V30.3633H61.1834V24.8059L62.6711 24.2109L51.5155 19.7486L40.3599 24.2109L45.3631 26.2122ZM55.91 29.0747C55.3505 29.4925 53.8984 30.3633 51.5155 30.3633C49.1325 30.3633 47.6804 29.4925 47.1209 29.0747V26.9153L51.5155 28.6731L55.91 26.9153V29.0747ZM57.938 24.2109L51.5155 26.7799L45.0929 24.2109L51.5155 21.6419L57.938 24.2109Z" fill="white"/>
<path d="M39.7737 25.6528L38.5307 24.4098L37.4062 25.5343C37.6012 22.3163 40.2805 19.7578 43.5467 19.7578V18C39.3043 18 35.8316 21.3572 35.645 25.5545L34.5002 24.4098L33.2573 25.6528L36.5155 28.9109L39.7737 25.6528Z" fill="white"/>
<path d="M62.7425 38.5894L59.4844 35.3313L56.2262 38.5894L57.4692 39.8324L58.6055 38.6961V40.0898C58.6055 43.4822 55.8455 46.2422 52.4531 46.2422V48C56.8148 48 60.3633 44.4515 60.3633 40.0898V38.6961L61.4997 39.8324L62.7425 38.5894Z" fill="white"/>
<path d="M54.1522 42.668V37.1107L55.6398 36.5157L44.4842 32.0534L33.3286 36.5157L38.3319 38.517V42.1532L38.5893 42.4107C38.6716 42.4929 40.6486 44.4258 44.4842 44.4258C48.3198 44.4258 50.2968 42.4929 50.3791 42.4106L50.6366 42.1532V38.5169L52.3944 37.8138V42.668H54.1522ZM48.8787 41.3795C48.3192 41.7973 46.8672 42.668 44.4842 42.668C42.1013 42.668 40.6492 41.7973 40.0897 41.3795V39.2201L44.4842 40.9779L48.8787 39.2201V41.3795ZM44.4842 39.0847L38.0617 36.5157L44.4842 33.9467L50.9067 36.5157L44.4842 39.0847Z" fill="white"/>
</g>
<defs>
<filter id="filter0_d_1_1615" x="0" y="0" width="95" height="100" filterUnits="userSpaceOnUse" color-interpolation-filters="sRGB">
<feFlood flood-opacity="0" result="BackgroundImageFix"/>
<feColorMatrix in="SourceAlpha" type="matrix" values="0 0 0 0 0 0 0 0 0 0 0 0 0 0 0 0 0 0 127 0" result="hardAlpha"/>
<feMorphology radius="20" operator="erode" in="SourceAlpha" result="effect1_dropShadow_1_1615"/>
<feOffset dy="20"/>
<feGaussianBlur stdDeviation="17.5"/>
<feColorMatrix type="matrix" values="0 0 0 0 0 0 0 0 0 0.751699 0 0 0 0 0.883333 0 0 0 0.4 0"/>
<feBlend mode="normal" in2="BackgroundImageFix" result="effect1_dropShadow_1_1615"/>
<feBlend mode="normal" in="SourceGraphic" in2="effect1_dropShadow_1_1615" result="shape"/>
</filter>
<clipPath id="clip0_1_1615">
<rect width="30" height="30" fill="white" transform="translate(33 18)"/>
</clipPath>
</defs>
</svg>
