<svg width="223" height="62" viewBox="0 0 223 62" fill="none" xmlns="http://www.w3.org/2000/svg">
<circle cx="31" cy="31" r="31" fill="#DEF4FE"/>
<path d="M39 31.5L27.75 25.0048V37.9952L39 31.5Z" fill="#0DACFF"/>
<path d="M92.028 22.228L89.298 32H86.988L85.154 25.042L83.236 32L80.94 32.014L78.308 22.228H80.408L82.13 29.816L84.118 22.228H86.302L88.178 29.774L89.914 22.228H92.028ZM92.8038 28.094C92.8038 27.31 92.9578 26.6147 93.2658 26.008C93.5831 25.4013 94.0078 24.9347 94.5398 24.608C95.0811 24.2813 95.6831 24.118 96.3458 24.118C96.9245 24.118 97.4285 24.2347 97.8578 24.468C98.2965 24.7013 98.6465 24.9953 98.9078 25.35V24.244H100.882V32H98.9078V30.866C98.6558 31.23 98.3058 31.5333 97.8578 31.776C97.4191 32.0093 96.9105 32.126 96.3318 32.126C95.6785 32.126 95.0811 31.958 94.5398 31.622C94.0078 31.286 93.5831 30.8147 93.2658 30.208C92.9578 29.592 92.8038 28.8873 92.8038 28.094ZM98.9078 28.122C98.9078 27.646 98.8145 27.24 98.6278 26.904C98.4411 26.5587 98.1891 26.2973 97.8718 26.12C97.5545 25.9333 97.2138 25.84 96.8498 25.84C96.4858 25.84 96.1498 25.9287 95.8418 26.106C95.5338 26.2833 95.2818 26.5447 95.0858 26.89C94.8991 27.226 94.8058 27.6273 94.8058 28.094C94.8058 28.5607 94.8991 28.9713 95.0858 29.326C95.2818 29.6713 95.5338 29.9373 95.8418 30.124C96.1591 30.3107 96.4951 30.404 96.8498 30.404C97.2138 30.404 97.5545 30.3153 97.8718 30.138C98.1891 29.9513 98.4411 29.69 98.6278 29.354C98.8145 29.0087 98.9078 28.598 98.9078 28.122ZM105.078 25.854V29.606C105.078 29.8673 105.139 30.0587 105.26 30.18C105.391 30.292 105.605 30.348 105.904 30.348H106.814V32H105.582C103.93 32 103.104 31.1973 103.104 29.592V25.854H102.18V24.244H103.104V22.326H105.078V24.244H106.814V25.854H105.078ZM107.72 28.122C107.72 27.3193 107.883 26.6193 108.21 26.022C108.536 25.4153 108.989 24.9487 109.568 24.622C110.146 24.286 110.809 24.118 111.556 24.118C112.517 24.118 113.31 24.3607 113.936 24.846C114.57 25.322 114.995 25.994 115.21 26.862H113.096C112.984 26.526 112.792 26.2647 112.522 26.078C112.26 25.882 111.934 25.784 111.542 25.784C110.982 25.784 110.538 25.9893 110.212 26.4C109.885 26.8013 109.722 27.3753 109.722 28.122C109.722 28.8593 109.885 29.4333 110.212 29.844C110.538 30.2453 110.982 30.446 111.542 30.446C112.335 30.446 112.853 30.0913 113.096 29.382H115.21C114.995 30.222 114.57 30.8893 113.936 31.384C113.301 31.8787 112.508 32.126 111.556 32.126C110.809 32.126 110.146 31.9627 109.568 31.636C108.989 31.3 108.536 30.8333 108.21 30.236C107.883 29.6293 107.72 28.9247 107.72 28.122ZM121.014 24.132C121.602 24.132 122.124 24.2627 122.582 24.524C123.039 24.776 123.394 25.154 123.646 25.658C123.907 26.1527 124.038 26.75 124.038 27.45V32H122.078V27.716C122.078 27.1 121.924 26.6287 121.616 26.302C121.308 25.966 120.888 25.798 120.356 25.798C119.814 25.798 119.385 25.966 119.068 26.302C118.76 26.6287 118.606 27.1 118.606 27.716V32H116.646V21.64H118.606V25.21C118.858 24.874 119.194 24.6127 119.614 24.426C120.034 24.23 120.5 24.132 121.014 24.132ZM132.681 32.126C131.935 32.126 131.263 31.9627 130.665 31.636C130.068 31.3 129.597 30.8287 129.251 30.222C128.915 29.6153 128.747 28.9153 128.747 28.122C128.747 27.3287 128.92 26.6287 129.265 26.022C129.62 25.4153 130.101 24.9487 130.707 24.622C131.314 24.286 131.991 24.118 132.737 24.118C133.484 24.118 134.161 24.286 134.767 24.622C135.374 24.9487 135.85 25.4153 136.195 26.022C136.55 26.6287 136.727 27.3287 136.727 28.122C136.727 28.9153 136.545 29.6153 136.181 30.222C135.827 30.8287 135.341 31.3 134.725 31.636C134.119 31.9627 133.437 32.126 132.681 32.126ZM132.681 30.418C133.036 30.418 133.367 30.334 133.675 30.166C133.993 29.9887 134.245 29.7273 134.431 29.382C134.618 29.0367 134.711 28.6167 134.711 28.122C134.711 27.3847 134.515 26.82 134.123 26.428C133.741 26.0267 133.269 25.826 132.709 25.826C132.149 25.826 131.678 26.0267 131.295 26.428C130.922 26.82 130.735 27.3847 130.735 28.122C130.735 28.8593 130.917 29.4287 131.281 29.83C131.655 30.222 132.121 30.418 132.681 30.418ZM145.487 24.244V32H143.513V31.02C143.261 31.356 142.93 31.622 142.519 31.818C142.118 32.0047 141.679 32.098 141.203 32.098C140.597 32.098 140.06 31.972 139.593 31.72C139.127 31.4587 138.758 31.0807 138.487 30.586C138.226 30.082 138.095 29.4847 138.095 28.794V24.244H140.055V28.514C140.055 29.13 140.209 29.606 140.517 29.942C140.825 30.2687 141.245 30.432 141.777 30.432C142.319 30.432 142.743 30.2687 143.051 29.942C143.359 29.606 143.513 29.13 143.513 28.514V24.244H145.487ZM149.381 25.448C149.633 25.0373 149.96 24.7153 150.361 24.482C150.772 24.2487 151.238 24.132 151.761 24.132V26.19H151.243C150.627 26.19 150.16 26.3347 149.843 26.624C149.535 26.9133 149.381 27.4173 149.381 28.136V32H147.421V24.244H149.381V25.448ZM158.377 25.364C158.629 25.0093 158.975 24.7153 159.413 24.482C159.861 24.2393 160.37 24.118 160.939 24.118C161.602 24.118 162.199 24.2813 162.731 24.608C163.273 24.9347 163.697 25.4013 164.005 26.008C164.323 26.6053 164.481 27.3007 164.481 28.094C164.481 28.8873 164.323 29.592 164.005 30.208C163.697 30.8147 163.273 31.286 162.731 31.622C162.199 31.958 161.602 32.126 160.939 32.126C160.37 32.126 159.866 32.0093 159.427 31.776C158.998 31.5427 158.648 31.2487 158.377 30.894V35.696H156.417V24.244H158.377V25.364ZM162.479 28.094C162.479 27.6273 162.381 27.226 162.185 26.89C161.999 26.5447 161.747 26.2833 161.429 26.106C161.121 25.9287 160.785 25.84 160.421 25.84C160.067 25.84 159.731 25.9333 159.413 26.12C159.105 26.2973 158.853 26.5587 158.657 26.904C158.471 27.2493 158.377 27.6553 158.377 28.122C158.377 28.5887 158.471 28.9947 158.657 29.34C158.853 29.6853 159.105 29.9513 159.413 30.138C159.731 30.3153 160.067 30.404 160.421 30.404C160.785 30.404 161.121 30.3107 161.429 30.124C161.747 29.9373 161.999 29.6713 162.185 29.326C162.381 28.9807 162.479 28.57 162.479 28.094ZM167.865 21.64V32H165.905V21.64H167.865ZM169.298 28.094C169.298 27.31 169.452 26.6147 169.76 26.008C170.077 25.4013 170.502 24.9347 171.034 24.608C171.575 24.2813 172.177 24.118 172.84 24.118C173.419 24.118 173.923 24.2347 174.352 24.468C174.791 24.7013 175.141 24.9953 175.402 25.35V24.244H177.376V32H175.402V30.866C175.15 31.23 174.8 31.5333 174.352 31.776C173.913 32.0093 173.405 32.126 172.826 32.126C172.173 32.126 171.575 31.958 171.034 31.622C170.502 31.286 170.077 30.8147 169.76 30.208C169.452 29.592 169.298 28.8873 169.298 28.094ZM175.402 28.122C175.402 27.646 175.309 27.24 175.122 26.904C174.935 26.5587 174.683 26.2973 174.366 26.12C174.049 25.9333 173.708 25.84 173.344 25.84C172.98 25.84 172.644 25.9287 172.336 26.106C172.028 26.2833 171.776 26.5447 171.58 26.89C171.393 27.226 171.3 27.6273 171.3 28.094C171.3 28.5607 171.393 28.9713 171.58 29.326C171.776 29.6713 172.028 29.9373 172.336 30.124C172.653 30.3107 172.989 30.404 173.344 30.404C173.708 30.404 174.049 30.3153 174.366 30.138C174.683 29.9513 174.935 29.69 175.122 29.354C175.309 29.0087 175.402 28.598 175.402 28.122ZM181.572 25.854V29.606C181.572 29.8673 181.633 30.0587 181.754 30.18C181.885 30.292 182.1 30.348 182.398 30.348H183.308V32H182.076C180.424 32 179.598 31.1973 179.598 29.592V25.854H178.674V24.244H179.598V22.326H181.572V24.244H183.308V25.854H181.572ZM188.274 25.854H186.916V32H184.928V25.854H184.046V24.244H184.928V23.852C184.928 22.9 185.199 22.2 185.74 21.752C186.281 21.304 187.098 21.094 188.19 21.122V22.774C187.714 22.7647 187.383 22.844 187.196 23.012C187.009 23.18 186.916 23.4833 186.916 23.922V24.244H188.274V25.854ZM192.988 32.126C192.241 32.126 191.569 31.9627 190.972 31.636C190.375 31.3 189.903 30.8287 189.558 30.222C189.222 29.6153 189.054 28.9153 189.054 28.122C189.054 27.3287 189.227 26.6287 189.572 26.022C189.927 25.4153 190.407 24.9487 191.014 24.622C191.621 24.286 192.297 24.118 193.044 24.118C193.791 24.118 194.467 24.286 195.074 24.622C195.681 24.9487 196.157 25.4153 196.502 26.022C196.857 26.6287 197.034 27.3287 197.034 28.122C197.034 28.9153 196.852 29.6153 196.488 30.222C196.133 30.8287 195.648 31.3 195.032 31.636C194.425 31.9627 193.744 32.126 192.988 32.126ZM192.988 30.418C193.343 30.418 193.674 30.334 193.982 30.166C194.299 29.9887 194.551 29.7273 194.738 29.382C194.925 29.0367 195.018 28.6167 195.018 28.122C195.018 27.3847 194.822 26.82 194.43 26.428C194.047 26.0267 193.576 25.826 193.016 25.826C192.456 25.826 191.985 26.0267 191.602 26.428C191.229 26.82 191.042 27.3847 191.042 28.122C191.042 28.8593 191.224 29.4287 191.588 29.83C191.961 30.222 192.428 30.418 192.988 30.418ZM200.432 25.448C200.684 25.0373 201.011 24.7153 201.412 24.482C201.823 24.2487 202.289 24.132 202.812 24.132V26.19H202.294C201.678 26.19 201.211 26.3347 200.894 26.624C200.586 26.9133 200.432 27.4173 200.432 28.136V32H198.472V24.244H200.432V25.448ZM213.764 24.132C214.716 24.132 215.481 24.426 216.06 25.014C216.648 25.5927 216.942 26.4047 216.942 27.45V32H214.982V27.716C214.982 27.1093 214.828 26.6473 214.52 26.33C214.212 26.0033 213.792 25.84 213.26 25.84C212.728 25.84 212.303 26.0033 211.986 26.33C211.678 26.6473 211.524 27.1093 211.524 27.716V32H209.564V27.716C209.564 27.1093 209.41 26.6473 209.102 26.33C208.794 26.0033 208.374 25.84 207.842 25.84C207.301 25.84 206.871 26.0033 206.554 26.33C206.246 26.6473 206.092 27.1093 206.092 27.716V32H204.132V24.244H206.092V25.182C206.344 24.8553 206.666 24.5987 207.058 24.412C207.459 24.2253 207.898 24.132 208.374 24.132C208.981 24.132 209.522 24.2627 209.998 24.524C210.474 24.776 210.843 25.14 211.104 25.616C211.356 25.168 211.72 24.8087 212.196 24.538C212.681 24.2673 213.204 24.132 213.764 24.132ZM221.336 22.06L221.112 28.822H219.46L219.222 22.06H221.336ZM220.328 32.098C219.973 32.098 219.679 31.9907 219.446 31.776C219.222 31.552 219.11 31.2767 219.11 30.95C219.11 30.6233 219.222 30.3527 219.446 30.138C219.679 29.914 219.973 29.802 220.328 29.802C220.673 29.802 220.958 29.914 221.182 30.138C221.406 30.3527 221.518 30.6233 221.518 30.95C221.518 31.2767 221.406 31.552 221.182 31.776C220.958 31.9907 220.673 32.098 220.328 32.098Z" fill="#19B0FF"/>
</svg>
